<svg width="50" height="50" viewBox="0 0 287 409" fill="none" xmlns="http://www.w3.org/2000/svg">
<g id="KRRLogo">
<g id="semicolon">
<g id="semihead">
<path id="outtersquare" d="M56.7534 237.131L46.7397 239.952C34.2371 243.473 26.6108 256.244 29.4418 268.918C32.3773 282.059 45.4258 290.168 58.5052 286.978L69.2006 284.37C72.3685 283.597 75.4454 282.352 77.8853 280.165C79.2044 278.982 80.6168 277.529 81.7028 275.943C85.4101 270.529 85.6937 266.141 85.0962 259.781C84.4072 252.448 82.9909 250.356 76.9707 242.814C72.6954 237.458 65.5329 236.495 61.7402 236.387C60.0514 236.339 58.385 236.672 56.7534 237.131Z" fill="black"/>
</g>
<g id="semibody">
<path id="semibit" d="M41.5549 316.071C41.5673 315.224 42.5659 313.857 43.5134 312.632C44.4923 311.366 45.4421 310.57 46.4659 309.783C47.9354 308.655 48.8821 308.133 50.6156 307.482C52.4417 306.796 55.4991 306.473 55.4991 306.473L64.4787 344.299C64.4787 344.299 61.5352 344.785 59.6549 344.66C57.9615 344.547 58.1498 344.614 55.2938 344.272C52.4379 343.931 51.6367 343.254 49.9029 342.244C47.4261 340.802 47.0371 339.164 47.0371 339.164C47.0371 339.164 41.5424 316.917 41.5549 316.071Z" fill="black"/>
<path id="semirightupper" d="M59.027 305.163L75.3494 301.088L84.4174 298.824C84.4174 298.824 89.3074 298.627 91.7762 300.15C94.5342 301.852 94.9989 304.097 96.3932 307.01C98.4246 311.256 99.6443 318.008 99.8334 318.804C100.022 319.601 101.586 327.133 101.542 332.296C101.504 336.735 100.171 343.604 100.171 343.604L71.5038 357.721L59.027 305.163Z" fill="black"/>
<path id="semirightmidd" d="M69.9376 350.416L100.662 341.162C100.662 341.162 99.4449 346.213 98.2876 349.338C97.0848 352.585 96.4299 354.652 94.8884 357.766C93.2997 360.532 92.4815 362.326 90.772 365.141C88.7176 368.524 87.1829 370.263 85.2463 373.635L69.1854 372.218C69.1854 372.218 71.2322 367.033 71.4322 362.8C71.6455 358.283 69.9376 350.416 69.9376 350.416Z" fill="black"/>
<path id="semirightbottom" d="M65.981 378.501C65.981 378.501 67.9829 375.19 68.9242 372.915C69.8209 370.749 70.718 367.196 70.718 367.196L85.8741 372.57C85.8741 372.57 82.8368 377.166 80.6165 379.908C79.1149 381.761 78.4115 383.018 76.8797 384.847C75.3585 386.664 74.548 387.637 72.7996 389.24C71.7541 390.199 69.9062 391.439 69.9062 391.439L65.981 378.501Z" fill="black"/>
<path id="semitail" d="M58.614 384.812C57.7193 381.779 59.3467 378.733 62.4669 378.225V378.225C64.5094 377.892 67.0636 378.757 68.0646 380.564L71.3052 386.412C72.2826 388.176 71.659 390.417 69.9062 391.439V391.439L67.0254 392.791L64.89 393.514C64.7332 393.567 64.5729 393.609 64.4104 393.639V393.639C62.6849 393.958 61.0084 392.929 60.5119 391.246L58.614 384.812Z" fill="black"/>
</g>
</g>
<g id="wings">
<g id="bracket">
<path id="frontupperbracket" d="M245.387 32.2003C245.387 32.2003 248.554 32.8366 248.288 36.7696C248.23 37.6268 233.26 48.76 223.545 56.3446C216.129 62.1345 204.478 71.0807 204.478 71.0807L185.312 88.1049C185.312 88.1049 177.45 97.427 172.508 103.47C168.436 108.449 166.763 109.242 162.183 116.292C159.608 120.255 155.882 125.975 153.324 129.932C149.373 136.042 145.55 141.292 141.615 149.084C138.095 156.054 133.955 167.477 133.955 167.477L128.129 183.72C128.129 183.72 123.56 198.852 120.953 206.615C118.346 214.379 115.749 228.648 114.474 239.197C111.902 260.472 109.926 273.019 109.904 273.526C109.806 275.814 103.035 276.866 102.828 274.936C102.62 273.006 100.205 257.799 99.75 246.309C99.4278 238.179 99.2932 233.591 99.9185 225.467C100.599 216.622 103.352 202.973 103.352 202.973L108.111 180.011L119.63 149.492L136.121 120.391C136.121 120.391 147.673 101.491 157.41 91.0997C163.508 84.5915 174.332 75.6178 174.332 75.6178L185.036 66.3346L201.658 54.464L212.334 48.1122L221.954 41.5483L245.387 32.2003Z" fill="black"/>
<path id="frontlowerbracket" d="M117.896 293.783C119.02 294.639 126.915 308.842 133.251 318.16C141.071 329.66 144.736 336.764 154.57 346.776C163.584 355.954 168.618 361.918 180.538 367.41C187.978 370.837 192.53 372.649 200.8 373.367C208.905 374.07 213.622 372.973 221.559 371.137C230.049 369.172 234.529 366.979 242.411 363.366C249.928 359.92 258.528 353.176 260.945 353.242C263.361 353.308 264.59 355.128 264.762 356.736C264.935 358.344 254.909 367.554 254.909 367.554L243.112 376.304C243.112 376.304 235.776 381.641 230.531 384.162C223.443 387.569 211.207 390.141 211.207 390.141C211.207 390.141 199.779 390.827 192.589 389.864C184.89 388.834 180.524 387.772 173.452 384.763C169.279 382.987 167.054 381.727 163.233 379.354C159.069 376.769 156.897 375.074 153.146 371.979C148.55 368.187 142.408 361.746 142.408 361.746C142.408 361.746 138.691 357.802 136.884 355.182C134.443 351.644 131.389 345.687 131.389 345.687L125.894 336.193L118.07 317.839C118.07 317.839 111.228 295.801 112.791 294.332C114.355 292.862 116.771 292.928 117.896 293.783Z" fill="black"/>
</g>
<g id="semicolon_2">
<path id="semicolontop" d="M204.111 77.2896C207.78 72.9915 216.974 75.2572 212.693 80.2716C208.413 85.286 204.813 89.0461 201.962 95.7387C197.871 105.343 198.62 111.814 199.281 122.053C199.993 133.079 202.154 139.141 205.35 149.704C208.204 159.139 211.599 163.823 215.087 173.058C218.294 181.546 222.61 195.022 222.61 195.022C222.61 195.022 224.889 210.262 225.305 220.108C225.487 224.417 225.985 226.862 225.458 231.153C224.951 235.289 222.786 241.525 222.786 241.525C222.786 241.525 220.765 245.87 219.053 248.433C217.479 250.788 216.393 251.989 214.501 254.127C212.667 256.199 211.879 257.664 209.54 259.214C207.136 260.807 205.362 260.99 202.601 261.912C199.648 262.896 194.912 264.039 194.912 264.039C194.912 264.039 188.786 264.697 188.105 264.77C187.425 264.843 185.072 262.168 186.566 260.055C188.061 257.943 201.181 254.533 206.525 247.176C212.966 238.309 210.839 220.036 210.839 220.036C210.839 220.036 207.698 202.41 204.327 191.456C200.905 180.336 193.425 163.673 193.425 163.673C193.425 163.673 187.323 150.035 185.798 140.743C184.381 132.108 184.693 127.066 185.456 118.333C186.273 108.997 186.018 103.28 190.15 94.7303C193.901 86.9696 200.442 81.5876 204.111 77.2896Z" fill="black"/>
<path id="semicolonbottom" d="M128.271 268.595C129.904 267.769 136.547 264.874 142.184 263.522C148.547 261.995 152.32 262.066 158.859 261.73C165.58 261.385 169.499 260.598 176.082 261.832C182.457 263.028 185.957 264.498 191.51 267.658C195.456 269.903 197.751 271.241 200.847 274.462C203.564 277.29 204.602 279.28 206.544 282.634C208.947 286.786 210.306 289.21 211.531 293.81C212.703 298.21 212.289 300.867 212.775 305.388C213.355 310.789 212.996 313.93 214.26 319.218C215.501 324.407 216.485 327.332 219.08 332.038C222.085 337.489 223.944 340.827 229.039 344.632C232.797 347.44 235.332 348.69 239.939 349.968C243.626 350.991 248.481 349.376 249.709 351.196C250.938 353.016 250.977 356.59 249.004 357.453C247.032 358.315 242.795 358.745 238.795 358.549C233.943 358.312 231.271 357.313 226.776 355.611C223.042 354.198 220.816 353.431 217.68 351.058C214.315 348.511 213.195 346.304 210.622 343.032C207.856 339.515 206.33 337.496 204.106 333.647C202.352 330.611 201.469 328.843 200.145 325.614C198.096 320.617 196.958 311.967 196.958 311.967C196.958 311.967 195.942 303.652 194.792 298.211C194.237 295.588 194.02 294.074 193.046 291.567C192.014 288.911 191.482 287.295 189.598 285.105C188.114 283.382 186.962 282.675 185.065 281.363C182.92 279.88 181.6 279.182 179.205 278.088C177.17 277.159 175.97 276.742 173.824 276.064C171.386 275.293 169.977 274.964 167.457 274.471C162.389 273.479 159.427 273.514 154.249 273.287C144.358 272.853 131.448 275.736 128.893 274.384C126.338 273.032 126.639 269.421 128.271 268.595Z" fill="black"/>
</g>
<g id="backwing">
<path id="backwinglong" d="M108.777 32.1767C116.261 27.5212 117.156 34.0269 117.156 34.0269C117.156 34.0269 104.833 46.6926 97.7964 55.3471C94.3875 59.5395 92.3234 61.8228 89.3911 66.2685C86.4605 70.7116 85.2523 73.399 82.8193 78.0521C80.2536 82.9591 78.6531 85.6713 76.6339 90.7548C74.4776 96.1834 73.7705 99.3592 72.2983 104.942C69.5182 115.486 67.2207 132.241 67.2207 132.241C67.2207 132.241 66.7658 142.695 66.9467 149.383C67.1244 155.949 67.3667 159.631 68.1118 166.157C68.8472 172.597 69.3586 176.209 70.7158 182.562C71.9884 188.519 73.1441 191.772 74.7344 197.666C76.0504 202.543 76.8105 205.273 78.1408 210.147C79.4711 215.021 79.726 217.882 81.5472 222.627C82.8143 225.929 84.1082 227.587 85.3859 230.886C86.7099 234.304 88.1147 238.254 88.1556 239.81C88.1965 241.366 83.5176 242.484 82.0459 241.608C80.5741 240.731 80.0838 239.68 79.0615 238.299C78.2212 237.165 77.8899 236.455 77.1708 235.259C76.2498 233.727 74.8937 231.299 74.8937 231.299C74.8937 231.299 72.4289 228.252 71.1367 226.152C69.7254 223.86 69.273 222.429 68.0788 220.043C65.3919 214.675 63.6129 211.765 61.1985 206.298C58.598 200.409 57.24 197.056 55.3627 190.954C53.8252 185.956 53.3107 183.074 52.125 178C50.9168 172.829 50.0157 169.96 49.2409 164.72C48.4753 159.542 48.4043 156.595 48.1658 151.369C48.0327 148.455 48.0462 146.817 47.9696 143.901C47.8993 141.228 47.7569 139.731 47.7897 137.055C47.8301 133.762 48.0167 131.915 48.2926 128.626C48.5593 125.446 48.7021 123.66 49.1655 120.493C50.1449 113.799 51.1785 110.085 53.0656 103.52C54.7487 97.6637 55.5555 94.3154 58.1084 88.6814C60.5619 83.267 62.4596 80.3994 65.7247 75.2993C69.1055 70.0186 71.1459 67.1076 75.1582 62.1571C78.8732 57.5735 81.0953 55.0688 85.3643 50.8533C89.2832 46.9835 91.6255 44.9095 95.9813 41.4022C100.742 37.5685 103.496 35.462 108.777 32.1767Z" fill="black"/>
<path id="backwingshort" d="M89.6199 74.9809C89.6199 74.9809 95.746 73.8051 96.1569 75.6578C96.5677 77.5105 95.277 78.9043 94.8486 81.0044C94.1548 84.4057 93.7826 86.3336 93.6303 89.7738C93.4579 93.6678 93.5046 95.8918 94.2537 99.7165C94.6116 101.544 94.99 102.535 95.4617 104.341C95.9335 106.147 96.1107 107.18 96.6698 108.966C97.9065 112.916 98.8554 115.091 100.911 118.766C101.862 120.465 103.558 123.022 103.558 123.022C103.558 123.022 105.18 125.612 106.205 127.279C106.205 127.279 109.302 132.905 111.508 136.102C113.713 139.3 116.358 141.518 117.155 144.29C117.952 147.062 113.644 148.477 111.44 147.318C109.237 146.159 108.884 145.797 107.387 144.675C105.672 143.389 104.849 142.537 103.309 141.098C101.491 139.399 100.484 138.431 98.8445 136.601C97.1162 134.673 96.2948 133.497 94.7257 131.469C92.1209 128.102 90.452 126.306 88.338 122.687C86.3286 119.248 85.2312 117.252 84.113 113.51C83.5981 111.786 83.3015 111.089 82.9213 109.507C82.4618 107.596 82.4212 106.313 82.0669 104.557C81.6787 102.633 81.264 101.567 81.2125 99.6073C81.161 97.648 81.2776 96.3837 81.4353 94.3034C81.5923 92.2338 81.7114 91.1778 82.02 88.9853C82.3141 86.8954 82.6194 85.6615 83.3282 83.6387C84.6606 79.8361 88.9208 75.9429 89.6199 74.9809Z" fill="black"/>
</g>
</g>
</g>
</svg>
