<svg width="255" height="346" viewBox="0 0 255 346" fill="none" xmlns="http://www.w3.org/2000/svg">
<g id="java">
<g id="java-orange">
<path id="Vector" d="M143.425 165.143C160.084 184.324 139.048 201.584 139.048 201.584C139.048 201.584 181.349 179.746 161.922 152.401C143.778 126.9 129.863 114.229 205.19 70.5425C205.19 70.5425 86.9522 100.073 143.425 165.143Z" fill="#E76F00"/>
<path id="Vector_2" d="M161.922 0C161.922 0 197.809 35.8987 127.885 91.1006C71.8139 135.382 115.099 160.63 127.862 189.477C95.1323 159.947 71.1129 133.951 87.227 109.757C110.879 74.2419 176.402 57.0228 161.922 0Z" fill="#E76F00"/>
</g>
<g id="java-blue">
<path id="Vector_3" d="M82.0371 267.101C82.0371 267.101 68.8387 274.776 91.43 277.374C118.799 280.496 132.787 280.048 162.947 274.34C162.947 274.34 170.877 279.312 181.951 283.618C114.339 312.596 28.9315 281.94 82.0371 267.101Z" fill="#5382A1"/>
<path id="Vector_4" d="M73.7752 229.288C73.7752 229.288 58.9719 240.245 81.58 242.584C110.816 245.6 133.905 245.847 173.856 238.154C173.856 238.154 179.382 243.756 188.071 246.819C106.324 270.723 15.2732 248.705 73.7752 229.288Z" fill="#5382A1"/>
<path id="Vector_5" d="M232.847 295.07C232.847 295.07 242.614 303.118 222.09 309.344C183.064 321.166 59.658 324.736 25.3764 309.815C13.053 304.454 36.1628 297.014 43.4323 295.453C51.0136 293.809 55.346 294.115 55.346 294.115C41.6412 284.461 -33.2365 313.072 17.3119 321.266C155.165 343.622 268.604 311.199 232.847 295.07Z" fill="#5382A1"/>
<path id="Vector_6" d="M88.3838 190.108C88.3838 190.108 25.6117 205.018 66.1547 210.432C83.2732 212.724 117.398 212.205 149.185 209.542C175.163 207.351 201.248 202.692 201.248 202.692C201.248 202.692 192.088 206.614 185.461 211.14C121.717 227.904 -1.42467 220.105 34.0262 202.957C64.0071 188.464 88.3838 190.108 88.3838 190.108Z" fill="#5382A1"/>
<path id="Vector_7" d="M200.989 253.051C265.788 219.379 235.828 187.021 214.916 191.38C209.79 192.447 207.505 193.371 207.505 193.371C207.505 193.371 209.408 190.391 213.042 189.1C254.412 174.556 286.229 231.998 199.687 254.748C199.687 254.749 200.69 253.852 200.989 253.051Z" fill="#5382A1"/>
<path id="Vector_8" d="M94.7513 344.294C156.95 348.275 252.463 342.085 254.725 312.654C254.725 312.654 250.377 323.811 203.321 332.672C150.234 342.662 84.7571 341.496 45.9224 335.093C45.9233 335.092 53.8723 341.672 94.7513 344.294Z" fill="#5382A1"/>
</g>
</g>
</svg>
